<svg width="36" height="36" viewBox="0 0 36 36" fill="none" xmlns="http://www.w3.org/2000/svg">
<g id="bookmark">
<path id="Vector" d="M28.1104 30.9995L17.9993 23.7773L7.88818 30.9995V7.8884C7.88818 7.12222 8.19255 6.38742 8.73432 5.84565C9.27609 5.30388 10.0109 4.99951 10.7771 4.99951H25.2215C25.9877 4.99951 26.7225 5.30388 27.2643 5.84565C27.806 6.38742 28.1104 7.12222 28.1104 7.8884V30.9995Z" stroke="#EFC81A" stroke-width="2" stroke-linecap="round" stroke-linejoin="round"/>
<path id="Vector_2" d="M28.1104 30.9995L17.9993 23.7773L7.88818 30.9995V7.8884C7.88818 7.12222 8.19255 6.38742 8.73432 5.84565C9.27609 5.30388 10.0109 4.99951 10.7771 4.99951H25.2215C25.9877 4.99951 26.7225 5.30388 27.2643 5.84565C27.806 6.38742 28.1104 7.12222 28.1104 7.8884V30.9995Z" stroke="#E9E9E8" stroke-width="2" stroke-linecap="round" stroke-linejoin="round"/>
</g>
</svg>
