<svg width="182" height="182" viewBox="0 0 182 182" fill="none" xmlns="http://www.w3.org/2000/svg">
<g id="barbecue 1" clip-path="url(#clip0_16177_84)">
<g id="Group">
<path id="Vector" d="M74.3169 41.9465C77.2616 41.9465 79.6489 39.5592 79.6489 36.6146C79.6489 33.1367 80.368 32.1603 81.8012 30.2141C85.8059 24.7759 88.2511 20.2309 88.2511 13.1696C88.2511 9.19058 86.9835 5.75752 85.8791 3.21169C84.7071 0.510172 81.5663 -0.73075 78.8658 0.442279C76.1643 1.61424 74.9244 4.75405 76.096 7.45557C76.7903 9.05586 77.5872 11.1517 77.5872 13.1693C77.5872 17.6264 75.9489 20.1755 73.2143 23.8904C71.33 26.4494 68.9854 29.6336 68.9854 36.6142C68.985 39.5592 71.3723 41.9465 74.3169 41.9465Z" fill="#EFC81A"/>
<path id="Vector_2" d="M99.0807 41.9462C102.025 41.9462 104.413 39.5589 104.413 36.6143C104.413 33.1368 105.132 32.1599 106.565 30.2138C110.576 24.7667 113.015 20.2164 113.015 13.1693C113.015 9.19062 111.747 5.75792 110.643 3.21173C109.472 0.509859 106.331 -0.729996 103.63 0.44161C100.928 1.61357 99.6886 4.75338 100.86 7.4549C101.554 9.05555 102.351 11.1514 102.351 13.169C102.351 17.6226 100.717 20.1691 97.9785 23.8904C96.0941 26.4491 93.7495 29.6333 93.7495 36.6139C93.7488 39.5589 96.1361 41.9462 99.0807 41.9462Z" fill="#EFC81A"/>
<path id="Vector_3" d="M123.088 148.606L117.735 129.742C114.462 131.19 111.09 132.369 107.651 133.271L112.831 151.524C108.451 154.539 105.573 159.585 105.573 165.292C105.573 174.504 113.068 181.999 122.28 181.999C131.492 181.999 138.987 174.504 138.987 165.292C138.987 156.351 131.926 149.029 123.088 148.606Z" fill="#EFC81A"/>
<path id="Vector_4" d="M90.9997 124.769C111.678 124.769 129.913 113.255 140.505 95.8496H41.4937C52.0865 113.255 70.3214 124.769 90.9997 124.769Z" fill="#EFC81A"/>
<path id="Vector_5" d="M159.249 51.5439H22.7509C19.8062 51.5439 17.4189 53.9312 17.4189 56.8759C17.4189 59.8205 19.8062 62.2078 22.7509 62.2078H31.8038C31.9684 70.3263 33.5396 78.0768 36.2631 85.1857H145.737C148.46 78.0768 150.031 70.3263 150.196 62.2078H159.249C162.193 62.2078 164.581 59.8205 164.581 56.8759C164.581 53.9312 162.193 51.5439 159.249 51.5439Z" fill="#EFC81A"/>
<path id="Vector_6" d="M54.5326 175.429C53.7342 178.774 56.2704 181.999 59.7234 181.999C62.1345 181.999 64.321 180.352 64.9053 177.904L75.4882 133.566C72.026 132.724 68.6285 131.598 65.3269 130.205L54.5326 175.429Z" fill="#EFC81A"/>
<path id="Vector_7" d="M85.668 135.206V176.667C85.668 179.612 88.0553 181.999 90.9999 181.999C93.9446 181.999 96.3319 179.612 96.3319 176.667V135.206C92.6407 135.509 89.3666 135.509 85.668 135.206Z" fill="#EFC81A"/>
</g>
</g>
<defs>
<clipPath id="clip0_16177_84">
<rect width="182" height="182" fill="white"/>
</clipPath>
</defs>
</svg>
